# Blender 4.5.2 LTS
# www.blender.org
mtllib Page.mtl
o Cube
v 0.400000 -1.728000 -1.120000
v 0.400000 1.728000 1.120000
v -0.400000 -1.728000 -1.120000
v -0.400000 1.728000 1.120000
v 0.400000 0.858790 -1.120000
v 0.400000 1.728000 -0.556623
v 0.400000 1.009727 -1.111441
v 0.400000 1.156077 -1.086024
v 0.400000 1.293395 -1.044522
v 0.400000 1.417507 -0.988195
v 0.400000 1.524644 -0.918755
v 0.400000 1.611548 -0.838311
v 0.400000 1.675580 -0.749309
v 0.400000 1.714795 -0.654452
v 0.400000 -0.858790 1.120000
v 0.400000 -1.728000 0.556623
v 0.400000 -1.009727 1.111441
v 0.400000 -1.156077 1.086024
v 0.400000 -1.293395 1.044522
v 0.400000 -1.417507 0.988195
v 0.400000 -1.524644 0.918755
v 0.400000 -1.611548 0.838311
v 0.400000 -1.675580 0.749309
v 0.400000 -1.714795 0.654452
v -0.400000 1.728000 -0.556623
v -0.400000 0.858790 -1.120000
v -0.400000 1.714795 -0.654452
v -0.400000 1.675580 -0.749309
v -0.400000 1.611548 -0.838311
v -0.400000 1.524644 -0.918755
v -0.400000 1.417507 -0.988195
v -0.400000 1.293395 -1.044522
v -0.400000 1.156077 -1.086024
v -0.400000 1.009727 -1.111441
v -0.400000 -1.728000 0.556623
v -0.400000 -0.858790 1.120000
v -0.400000 -1.714795 0.654452
v -0.400000 -1.675580 0.749309
v -0.400000 -1.611548 0.838311
v -0.400000 -1.524644 0.918755
v -0.400000 -1.417507 0.988195
v -0.400000 -1.293395 1.044522
v -0.400000 -1.156077 1.086024
v -0.400000 -1.009727 1.111441
vn -0.0000 -0.9910 0.1338
vn -0.0000 -0.9241 0.3821
vn -0.0000 -0.8117 0.5840
vn -0.0000 -0.6793 0.7339
vn -0.0000 -0.5439 0.8392
vn -0.0000 -0.4133 0.9106
vn -0.0000 -0.2893 0.9572
vn -0.0000 -0.1711 0.9853
vn -0.0000 -0.0566 0.9984
vn -0.0000 0.9910 -0.1338
vn -0.0000 0.9241 -0.3821
vn -0.0000 0.8117 -0.5840
vn -0.0000 0.6793 -0.7339
vn -0.0000 0.5439 -0.8392
vn -0.0000 0.4133 -0.9106
vn -0.0000 0.2893 -0.9572
vn -0.0000 0.1711 -0.9853
vn -0.0000 0.0566 -0.9984
vn -0.0000 -0.0000 -1.0000
vn 1.0000 -0.0000 -0.0000
vn -0.0000 1.0000 -0.0000
vn -0.0000 -0.0000 1.0000
vn -0.0000 -1.0000 -0.0000
vn -1.0000 -0.0000 -0.0000
vt 0.090011 0.857363
vt 0.091597 0.870335
vt 0.090011 0.870335
vt 0.091597 0.857363
vt 0.093135 0.870335
vt 0.093135 0.857363
vt 0.094578 0.870335
vt 0.094578 0.857363
vt 0.095883 0.870335
vt 0.095883 0.857363
vt 0.097009 0.870335
vt 0.097009 0.857363
vt 0.097922 0.870335
vt 0.097922 0.857363
vt 0.098595 0.870335
vt 0.098595 0.857363
vt 0.099007 0.870335
vt 0.011956 0.861181
vt 0.014306 0.873635
vt 0.011956 0.873635
vt 0.090011 0.875543
vt 0.091597 0.888515
vt 0.090011 0.888515
vt 0.091597 0.875543
vt 0.093135 0.888515
vt 0.093135 0.875543
vt 0.094578 0.888515
vt 0.094578 0.875543
vt 0.095883 0.888515
vt 0.095883 0.875543
vt 0.097009 0.888515
vt 0.097009 0.875543
vt 0.097922 0.888515
vt 0.097922 0.875543
vt 0.098595 0.888515
vt 0.098595 0.875543
vt 0.099007 0.888515
vt 0.054689 0.888432
vt 0.052339 0.875979
vt 0.054689 0.875979
vt 0.012070 0.888432
vt 0.012070 0.875979
vt 0.065152 0.980679
vt 0.002191 0.997002
vt 0.012771 0.899864
vt 0.062823 0.875543
vt 0.054575 0.861181
vt 0.014306 0.861181
vt 0.062823 0.857363
vt 0.062823 0.870335
vt 0.130791 0.901551
vt 0.093170 0.991619
vt 0.078206 0.972247
vt 0.099007 0.857363
vt 0.099007 0.875543
vt 0.052339 0.888432
vt 0.018270 0.898368
vt 0.066121 0.898368
vt 0.066121 0.972195
vt 0.065876 0.976503
vt 0.063967 0.984598
vt 0.062359 0.988140
vt 0.060378 0.991198
vt 0.058082 0.993678
vt 0.055541 0.995506
vt 0.052834 0.996625
vt 0.050042 0.997002
vt 0.002191 0.923176
vt 0.002436 0.918867
vt 0.003162 0.914691
vt 0.004346 0.910772
vt 0.005953 0.907230
vt 0.007935 0.904172
vt 0.010231 0.901692
vt 0.015478 0.898745
vt 0.062823 0.888515
vt 0.054575 0.873635
vt 0.077975 0.898410
vt 0.123194 0.898410
vt 0.125832 0.898766
vt 0.128391 0.899824
vt 0.132961 0.903895
vt 0.134834 0.906784
vt 0.136353 0.910132
vt 0.137473 0.913835
vt 0.138158 0.917782
vt 0.138389 0.921853
vt 0.138389 0.991619
vt 0.090531 0.991263
vt 0.087973 0.990205
vt 0.085572 0.988478
vt 0.083403 0.986134
vt 0.081530 0.983245
vt 0.080011 0.979897
vt 0.078892 0.976194
vt 0.077975 0.968176
s 1
usemtl Material.001
f 16/1/1 37/2/1 35/3/1
f 24/4/2 38/5/2 37/2/2
f 23/6/3 39/7/3 38/5/3
f 22/8/4 40/9/4 39/7/4
f 21/10/5 41/11/5 40/9/5
f 20/12/6 42/13/6 41/11/6
f 19/14/7 43/15/7 42/13/7
f 18/16/8 44/17/8 43/15/8
f 17/18/9 36/19/9 44/20/9
f 6/21/10 27/22/10 25/23/10
f 14/24/11 28/25/11 27/22/11
f 13/26/12 29/27/12 28/25/12
f 12/28/13 30/29/13 29/27/13
f 11/30/14 31/31/14 30/29/14
f 10/32/15 32/33/15 31/31/15
f 9/34/16 33/35/16 32/33/16
f 8/36/17 34/37/17 33/35/17
f 7/38/18 26/39/18 34/40/18
f 26/39/19 1/41/19 3/42/19
f 8/43/20 2/44/20 23/45/20
f 25/23/21 2/46/21 6/21/21
f 2/47/22 36/19/22 15/48/22
f 1/49/23 35/3/23 3/50/23
f 39/51/24 25/52/24 34/53/24
f 16/1/1 24/4/1 37/2/1
f 24/4/2 23/6/2 38/5/2
f 23/6/3 22/8/3 39/7/3
f 22/8/4 21/10/4 40/9/4
f 21/10/5 20/12/5 41/11/5
f 20/12/6 19/14/6 42/13/6
f 19/14/7 18/16/7 43/15/7
f 18/16/8 17/54/8 44/17/8
f 17/18/9 15/48/9 36/19/9
f 6/21/10 14/24/10 27/22/10
f 14/24/11 13/26/11 28/25/11
f 13/26/12 12/28/12 29/27/12
f 12/28/13 11/30/13 30/29/13
f 11/30/14 10/32/14 31/31/14
f 10/32/15 9/34/15 32/33/15
f 9/34/16 8/36/16 33/35/16
f 8/36/17 7/55/17 34/37/17
f 7/38/18 5/56/18 26/39/18
f 26/39/19 5/56/19 1/41/19
f 16/57/20 1/58/20 5/59/20
f 5/59/20 7/60/20 8/43/20
f 8/43/20 9/61/20 10/62/20
f 10/62/20 11/63/20 12/64/20
f 12/64/20 13/65/20 14/66/20
f 14/66/20 6/67/20 2/44/20
f 2/44/20 15/68/20 17/69/20
f 17/69/20 18/70/20 19/71/20
f 19/71/20 20/72/20 21/73/20
f 21/73/20 22/74/20 23/45/20
f 23/45/20 24/75/20 16/57/20
f 16/57/20 5/59/20 8/43/20
f 8/43/20 10/62/20 12/64/20
f 12/64/20 14/66/20 2/44/20
f 2/44/20 17/69/20 19/71/20
f 19/71/20 21/73/20 23/45/20
f 23/45/20 16/57/20 8/43/20
f 8/43/20 12/64/20 2/44/20
f 2/44/20 19/71/20 23/45/20
f 25/23/21 4/76/21 2/46/21
f 2/47/22 4/77/22 36/19/22
f 1/49/23 16/1/23 35/3/23
f 3/78/24 35/79/24 37/80/24
f 37/80/24 38/81/24 39/51/24
f 39/51/24 40/82/24 41/83/24
f 41/83/24 42/84/24 43/85/24
f 43/85/24 44/86/24 36/87/24
f 36/87/24 4/88/24 25/52/24
f 25/52/24 27/89/24 28/90/24
f 28/90/24 29/91/24 30/92/24
f 30/92/24 31/93/24 32/94/24
f 32/94/24 33/95/24 34/53/24
f 34/53/24 26/96/24 3/78/24
f 3/78/24 37/80/24 39/51/24
f 39/51/24 41/83/24 43/85/24
f 43/85/24 36/87/24 25/52/24
f 25/52/24 28/90/24 30/92/24
f 30/92/24 32/94/24 34/53/24
f 34/53/24 3/78/24 39/51/24
f 39/51/24 43/85/24 25/52/24
f 25/52/24 30/92/24 34/53/24
